<?xml version="1.0" standalone="no"?>
<!DOCTYPE svg PUBLIC "-//W3C//DTD SVG 20010904//EN"
 "http://www.w3.org/TR/2001/REC-SVG-20010904/DTD/svg10.dtd">
<svg version="1.0" xmlns="http://www.w3.org/2000/svg"
 width="301.000000pt" height="298.000000pt" viewBox="0 0 301.000000 298.000000"
 preserveAspectRatio="xMidYMid meet">
<metadata>
Created by potrace 1.16, written by Peter Selinger 2001-2019
</metadata>
<g transform="translate(0.000000,298.000000) scale(0.100000,-0.100000)"
fill="#000000" stroke="none">
<path d="M5 1490 c0 -822 1 -1159 2 -748 2 412 2 1084 0 1495 -1 412 -2 75 -2
-747z"/>
<path d="M1791 2598 c-22 -59 -52 -181 -47 -194 3 -8 17 -14 30 -14 22 0 28 8
47 73 12 39 22 90 23 112 1 34 -2 40 -21 43 -16 2 -26 -3 -32 -20z"/>
<path d="M1673 2315 c-62 -19 -125 -59 -167 -105 l-37 -41 -31 26 c-196 165
-590 103 -696 -108 -23 -47 -47 -150 -39 -171 3 -8 -13 -22 -39 -34 -61 -30
-131 -97 -165 -158 -24 -42 -37 -54 -83 -73 -32 -13 -70 -39 -91 -62 -33 -37
-35 -43 -35 -108 0 -141 51 -343 125 -496 130 -269 365 -485 650 -598 312
-124 701 -109 1001 37 385 189 633 548 683 988 16 139 -8 186 -124 239 -47 21
-65 36 -83 68 -28 49 -103 126 -145 148 -17 8 -54 23 -81 33 -48 16 -51 19
-58 57 -15 88 -64 150 -173 218 -33 21 -83 55 -111 77 -94 71 -204 94 -301 63z
m182 -67 c17 -6 53 -28 80 -48 28 -20 78 -53 111 -73 79 -48 141 -114 150
-162 17 -91 -58 -191 -189 -254 -180 -84 -179 -84 -190 -65 -39 69 -130 136
-212 155 l-50 11 -1 97 c0 74 -5 108 -22 150 l-22 55 26 33 c77 101 205 142
319 101z m-550 -49 c111 -41 178 -132 191 -257 13 -124 -54 -240 -174 -299
-50 -24 -69 -28 -147 -28 -106 0 -153 20 -218 91 -23 25 -68 61 -100 81 -68
41 -87 75 -87 155 0 138 113 248 290 282 54 10 187 -3 245 -25z m1040 -376
c116 -60 195 -193 195 -325 0 -89 -3 -93 -83 -117 -95 -28 -246 -57 -381 -72
l-109 -13 -28 34 c-17 20 -33 55 -40 89 -6 31 -17 75 -25 99 -12 39 -11 44 8
62 12 11 26 20 31 20 5 0 51 20 102 44 102 48 176 108 207 169 18 37 21 39 56
32 20 -4 50 -14 67 -22z m-1603 -23 c9 -16 41 -43 72 -60 30 -17 71 -49 90
-70 52 -58 110 -97 167 -111 38 -10 48 -16 43 -28 -3 -9 -9 -55 -13 -103 -9
-123 -19 -132 -131 -124 -102 7 -309 48 -396 76 -63 21 -63 21 -70 67 -20 135
38 274 150 354 49 36 67 36 88 -1z m898 -77 c70 -29 146 -125 174 -222 18 -61
21 -157 6 -195 l-10 -26 -304 0 -305 0 -17 31 c-22 43 -27 125 -12 184 l13 50
55 8 c103 15 227 93 266 170 14 27 18 28 57 22 23 -4 58 -14 77 -22z m1046
-340 c-26 -135 -28 -144 -48 -154 -82 -44 -305 -95 -568 -131 -148 -20 -207
-22 -565 -23 -430 0 -523 7 -791 60 -164 31 -322 82 -329 105 -3 10 -12 49
-19 89 -15 77 -10 85 32 55 64 -45 310 -109 507 -133 365 -44 858 -42 1229 5
228 29 415 77 501 128 52 31 58 31 51 -1z m-2181 -264 c85 -27 287 -65 445
-84 181 -22 703 -31 913 -16 280 21 552 64 698 112 33 11 63 18 66 15 9 -9
-95 -215 -149 -293 -354 -518 -1089 -646 -1629 -283 -147 99 -315 300 -391
467 -49 109 -51 116 -31 108 10 -4 45 -16 78 -26z"/>
<path d="M2184 1587 c-73 -63 -80 -64 -123 -18 -37 40 -54 47 -85 35 -23 -9
-20 -24 5 -24 12 0 39 -16 60 -35 22 -19 47 -35 58 -35 10 0 45 18 77 40 74
50 98 51 125 5 25 -42 48 -50 96 -34 34 11 37 10 55 -15 19 -25 48 -36 48 -17
0 6 -10 22 -23 36 -23 28 -50 33 -103 20 -28 -6 -32 -4 -44 24 -25 62 -86 69
-146 18z"/>
<path d="M630 849 c0 -21 102 -130 184 -195 111 -89 368 -215 354 -174 -2 7
-47 32 -99 55 -53 23 -131 66 -174 96 -75 52 -235 202 -235 220 0 5 -7 9 -15
9 -8 0 -15 -5 -15 -11z"/>
<path d="M2245 704 c-121 -108 -267 -184 -443 -231 -80 -22 -125 -27 -256 -30
-88 -2 -162 -6 -165 -9 -28 -27 195 -33 340 -8 154 27 296 82 429 169 70 45
170 131 170 146 0 20 -27 6 -75 -37z"/>
</g>
</svg>
