<?xml version="1.0" standalone="no"?>
<!DOCTYPE svg PUBLIC "-//W3C//DTD SVG 20010904//EN"
 "http://www.w3.org/TR/2001/REC-SVG-20010904/DTD/svg10.dtd">
<svg version="1.0" xmlns="http://www.w3.org/2000/svg"
 width="256.000000pt" height="256.000000pt" viewBox="0 0 256.000000 256.000000"
 preserveAspectRatio="xMidYMid meet">
<metadata>
Created by potrace 1.16, written by Peter Selinger 2001-2019
</metadata>
<g transform="translate(0.000000,256.000000) scale(0.100000,-0.100000)"
fill="#FFFFFF" stroke="none">
<path d="M1416 2545 c-152 -39 -274 -134 -339 -267 -63 -126 -78 -207 -84
-425 l-6 -193 -153 0 -153 0 -20 -26 c-20 -25 -21 -39 -21 -261 0 -244 6 -282
45 -297 9 -3 82 -6 161 -6 l144 0 0 -509 c0 -499 0 -509 21 -535 l20 -26 254
0 c234 0 255 1 276 19 l24 19 3 516 3 516 135 0 c137 0 166 6 183 39 12 22 61
397 61 464 0 34 -6 53 -20 67 -18 18 -33 20 -190 20 l-170 0 0 143 c0 141 0
144 26 167 24 23 33 25 189 30 142 4 166 7 184 24 20 18 21 28 21 242 0 122
-3 230 -6 239 -4 8 -21 23 -38 32 -45 24 -463 30 -550 8z m424 -271 l0 -115
-67 6 c-128 13 -248 -23 -298 -89 -47 -61 -55 -111 -55 -329 0 -264 -15 -247
207 -247 146 0 163 -2 163 -17 0 -21 -20 -191 -26 -220 -4 -21 -9 -22 -155
-25 -145 -3 -152 -4 -170 -27 -18 -22 -19 -46 -19 -537 l0 -514 -130 0 -130 0
0 505 c0 348 -3 512 -11 528 -18 40 -50 47 -199 47 l-140 0 0 130 0 130 153 0
c144 0 155 1 173 21 17 19 20 44 25 273 6 284 18 341 85 432 99 133 215 173
481 166 l113 -3 0 -115z"/>
</g>
</svg>
