<?xml version="1.0" standalone="no"?>
<!DOCTYPE svg PUBLIC "-//W3C//DTD SVG 20010904//EN"
 "http://www.w3.org/TR/2001/REC-SVG-20010904/DTD/svg10.dtd">
<svg version="1.0" xmlns="http://www.w3.org/2000/svg"
 width="256.000000pt" height="256.000000pt" viewBox="0 0 256.000000 256.000000"
 preserveAspectRatio="xMidYMid meet">
<metadata>
Created by potrace 1.16, written by Peter Selinger 2001-2019
</metadata>
<g transform="translate(0.000000,256.000000) scale(0.100000,-0.100000)"
fill="#FFFFFF" stroke="none">
<path d="M660 2550 c-347 -41 -568 -245 -637 -585 -16 -81 -18 -150 -18 -680
0 -634 2 -666 52 -818 51 -154 172 -297 314 -372 38 -20 113 -48 167 -63 l97
-27 645 0 c632 0 647 0 731 22 165 42 288 115 379 224 62 74 101 151 137 266
l28 88 3 638 c3 556 1 650 -13 725 -44 232 -170 408 -360 501 -91 45 -163 65
-285 80 -97 13 -1138 13 -1240 1z m1299 -254 c138 -36 256 -128 307 -240 56
-124 58 -150 58 -776 0 -504 -2 -584 -16 -648 -46 -197 -157 -316 -345 -368
-127 -35 -1230 -35 -1357 0 -87 24 -155 61 -209 114 -144 140 -163 265 -154
1027 6 486 11 542 63 652 31 64 103 146 158 178 63 37 152 65 236 75 41 4 327
7 635 6 487 -3 568 -5 624 -20z"/>
<path d="M1887 2098 c-69 -40 -96 -137 -58 -208 28 -54 74 -80 138 -80 98 0
157 59 157 157 0 121 -130 193 -237 131z"/>
<path d="M1129 1925 c-128 -32 -259 -111 -344 -207 -71 -81 -133 -214 -152
-328 -55 -325 139 -644 452 -743 58 -18 93 -22 205 -22 121 0 143 3 208 27
163 59 296 172 369 313 58 112 77 189 77 315 0 126 -19 203 -77 314 -48 93
-151 203 -239 254 -105 62 -189 85 -323 88 -80 2 -139 -1 -176 -11z m326 -263
c332 -156 330 -607 -2 -765 -62 -29 -76 -32 -168 -32 -92 0 -106 3 -168 32
-267 127 -335 457 -137 667 53 56 140 109 206 126 22 5 76 8 121 6 66 -3 95
-10 148 -34z"/>
</g>
</svg>
