<?xml version="1.0" standalone="no"?>
<!DOCTYPE svg PUBLIC "-//W3C//DTD SVG 20010904//EN"
 "http://www.w3.org/TR/2001/REC-SVG-20010904/DTD/svg10.dtd">
<svg version="1.0" xmlns="http://www.w3.org/2000/svg"
 width="597.000000pt" height="499.000000pt" viewBox="0 0 597.000000 499.000000"
 preserveAspectRatio="xMidYMid meet">
<metadata>
Created by potrace 1.16, written by Peter Selinger 2001-2019
</metadata>
<g transform="translate(0.000000,499.000000) scale(0.100000,-0.100000)"
fill="#000000" stroke="none">
<path d="M3852 4623 c-18 -7 -21 -14 -355 -764 -168 -376 -311 -696 -318 -712
-18 -40 -33 -28 -42 33 -14 102 -117 260 -225 345 -73 59 -218 130 -305 149
-87 20 -254 20 -347 1 -325 -68 -570 -311 -570 -563 l0 -69 -87 -32 c-124 -44
-216 -102 -303 -190 -87 -89 -137 -176 -173 -301 l-25 -85 -54 -3 c-46 -2 -60
-8 -84 -33 l-28 -29 12 -88 c18 -120 65 -310 113 -448 154 -447 420 -826 729
-1036 41 -28 79 -55 84 -59 5 -4 14 -78 21 -164 10 -121 16 -161 29 -173 15
-16 89 -17 932 -13 503 2 931 7 950 11 20 5 41 13 46 18 6 6 16 77 23 158 10
123 15 150 30 159 64 37 195 145 280 230 311 311 559 800 671 1322 24 114 15
133 -60 133 l-54 0 -16 70 c-41 185 -171 391 -321 510 -121 96 -261 149 -400
151 -36 1 -65 3 -65 6 0 8 24 40 414 563 203 272 378 509 389 527 10 19 16 41
12 52 -7 23 -209 131 -245 131 -14 0 -32 -10 -41 -23 -98 -136 -933 -1346
-944 -1366 -7 -15 -29 -39 -48 -54 -31 -24 -36 -25 -56 -11 -21 15 -17 23 344
741 201 399 365 735 365 748 0 29 -3 31 -137 104 -113 62 -118 63 -141 54z
m165 -179 c5 -14 -684 -1394 -696 -1394 -5 0 -23 8 -39 17 l-29 17 62 140 c34
78 171 386 305 686 134 300 249 560 257 578 l14 33 60 -33 c34 -18 63 -38 66
-44z m570 -145 c30 -17 53 -35 51 -40 -2 -5 -98 -136 -214 -291 -116 -156
-304 -407 -416 -558 l-205 -276 -58 -18 c-31 -9 -59 -15 -61 -13 -5 4 837
1226 845 1227 2 0 28 -14 58 -31z m-1952 -729 c144 -45 261 -131 340 -250 42
-63 83 -155 73 -165 -2 -2 -44 -1 -94 2 l-90 6 -29 56 c-36 66 -125 160 -180
189 -81 41 -151 55 -254 50 -107 -5 -168 -23 -252 -74 -110 -66 -206 -191
-225 -290 l-6 -34 -75 0 -76 0 7 55 c26 224 220 404 506 471 83 20 268 11 355
-16z m-98 -215 c77 -23 141 -72 191 -144 47 -69 46 -72 -16 -86 -29 -6 -38 -2
-78 35 -65 59 -115 80 -200 80 -55 0 -81 -5 -120 -25 -55 -27 -123 -89 -162
-147 -13 -21 -28 -38 -32 -38 -4 0 -32 5 -64 11 -51 11 -56 14 -50 33 25 85
117 193 202 239 100 55 231 71 329 42z m-24 -221 c37 -19 67 -44 67 -55 0 -5
-18 -18 -40 -29 -21 -11 -68 -47 -104 -81 l-65 -60 -75 41 c-42 23 -78 45 -81
50 -7 12 88 106 131 129 48 25 123 27 167 5z m607 -100 c252 -80 462 -310 524
-576 l6 -28 -77 0 -78 0 -12 50 c-83 347 -465 507 -808 338 -33 -16 -74 -43
-91 -59 l-31 -30 -57 63 -58 63 47 43 c86 78 227 142 354 162 80 12 194 2 281
-26z m1041 0 c179 -63 351 -238 438 -447 16 -41 33 -93 37 -115 l7 -42 -90 0
-90 0 -17 63 c-49 178 -217 331 -411 372 -126 26 -240 12 -366 -46 -40 -19
-73 -28 -77 -23 -53 63 -82 106 -78 113 19 30 206 113 308 136 90 20 266 14
339 -11z m-2176 -75 c256 -35 471 -195 555 -411 47 -122 49 -118 -78 -118
l-108 0 -13 63 c-37 183 -170 319 -353 362 -82 19 -142 19 -231 -1 -139 -32
-256 -104 -336 -207 -45 -59 -90 -156 -91 -194 0 -22 -4 -23 -66 -23 l-66 0 7
33 c63 291 331 494 667 506 20 0 71 -4 113 -10z m1116 -185 c70 -20 139 -65
189 -122 41 -46 94 -144 106 -194 l6 -28 -79 0 -79 0 -11 43 c-29 106 -118
169 -251 176 -129 6 -220 -38 -266 -131 -14 -28 -26 -60 -26 -70 0 -28 -19
-21 -26 10 -7 31 -36 122 -56 170 -12 31 -11 34 12 53 38 30 118 70 180 90 72
23 226 25 301 3z m889 7 c100 -17 167 -49 236 -114 70 -65 108 -122 130 -192
l13 -45 -70 0 c-57 0 -71 3 -75 18 -18 54 -29 74 -62 107 -55 55 -125 87 -202
93 -80 5 -134 -9 -198 -52 l-50 -33 -31 71 c-17 39 -31 74 -31 77 0 8 90 44
145 58 82 22 122 24 195 12z m-2039 -11 c142 -27 268 -143 294 -270 3 -19 9
-43 11 -52 5 -16 -3 -18 -60 -18 l-65 0 -16 55 c-32 112 -129 178 -260 179
-58 0 -81 -5 -128 -27 -69 -34 -130 -101 -147 -162 l-13 -45 -79 0 c-91 0 -90
-1 -39 95 61 115 190 209 331 239 81 18 104 19 171 6z m-1 -218 c37 -18 80
-74 80 -103 0 -18 -12 -19 -190 -19 l-191 0 15 28 c18 34 62 76 101 96 41 22
141 21 185 -2z m1116 -16 c37 -17 55 -33 67 -59 9 -19 17 -38 17 -41 0 -3 -85
-6 -190 -6 l-190 0 11 27 c36 94 172 132 285 79z m947 8 c43 -15 117 -80 117
-104 0 -6 -72 -10 -195 -10 -182 0 -195 1 -195 18 0 10 12 30 28 44 68 64 155
83 245 52z m752 -246 c-15 -76 -88 -321 -126 -423 -100 -271 -282 -585 -453
-777 -90 -101 -254 -245 -311 -272 -29 -14 -137 -16 -979 -16 -915 0 -948 1
-985 19 -122 63 -337 266 -455 430 -122 170 -233 389 -311 613 -41 116 -91
316 -101 401 l-7 57 1867 0 1868 0 -7 -32z m-980 -1690 c-4 -62 -9 -115 -12
-118 -3 -3 -404 -7 -892 -8 l-888 -4 -6 93 c-4 50 -7 105 -7 121 l0 28 906 0
906 0 -7 -112z"/>
</g>
</svg>
